<?xml version="1.0" encoding="UTF-8" standalone="no"?>
<!-- Created with Inkscape (http://www.inkscape.org/) -->

<svg
   xmlns:dc="http://purl.org/dc/elements/1.1/"
   xmlns:cc="http://creativecommons.org/ns#"
   xmlns:rdf="http://www.w3.org/1999/02/22-rdf-syntax-ns#"
   xmlns:svg="http://www.w3.org/2000/svg"
   xmlns="http://www.w3.org/2000/svg"
   xmlns:sodipodi="http://sodipodi.sourceforge.net/DTD/sodipodi-0.dtd"
   xmlns:inkscape="http://www.inkscape.org/namespaces/inkscape"
   width="210mm"
   height="248mm"
   viewBox="0 0 210 248"
   version="1.1"
   id="svg8"
   inkscape:version="0.92.3 (2405546, 2018-03-11)"
   sodipodi:docname="logo.svg"
   inkscape:export-filename="C:\Users\arthu\Documents\projects\familyline\logo.png"
   inkscape:export-xdpi="96"
   inkscape:export-ydpi="96">
  <defs
     id="defs2" />
  <sodipodi:namedview
     id="base"
     pagecolor="#ffffff"
     bordercolor="#666666"
     borderopacity="1.0"
     inkscape:pageopacity="0.0"
     inkscape:pageshadow="2"
     inkscape:zoom="0.7"
     inkscape:cx="335.3113"
     inkscape:cy="717.15166"
     inkscape:document-units="mm"
     inkscape:current-layer="layer1"
     showgrid="false"
     showguides="false"
     inkscape:window-width="1920"
     inkscape:window-height="1027"
     inkscape:window-x="-8"
     inkscape:window-y="-8"
     inkscape:window-maximized="1" />
  <metadata
     id="metadata5">
    <rdf:RDF>
      <cc:Work
         rdf:about="">
        <dc:format>image/svg+xml</dc:format>
        <dc:type
           rdf:resource="http://purl.org/dc/dcmitype/StillImage" />
        <dc:title></dc:title>
      </cc:Work>
    </rdf:RDF>
  </metadata>
  <g
     inkscape:label="Camada 1"
     inkscape:groupmode="layer"
     id="layer1"
     transform="translate(0,-49)">
    <rect
       style="opacity:1;fill:#803300;fill-opacity:1;stroke:#000000;stroke-width:0.96493542;stroke-linecap:round;stroke-linejoin:round;stroke-miterlimit:4;stroke-dasharray:none;stroke-opacity:1"
       id="rect819"
       width="22.300594"
       height="103.56547"
       x="93.849701"
       y="140.36664" />
    <path
       style="opacity:1;fill:#37c837;fill-opacity:1;stroke:#005500;stroke-width:0.88876534;stroke-linecap:round;stroke-linejoin:round;stroke-miterlimit:4;stroke-dasharray:none;stroke-opacity:1"
       d="M 113.15917,52.672174 A 13.447878,13.197918 0 0 0 100.68299,60.97265 13.447878,13.197918 0 0 0 89.108307,54.463734 13.447878,13.197918 0 0 0 75.795373,65.905623 13.447878,13.197918 0 0 0 67.552966,63.116428 13.447878,13.197918 0 0 0 54.104855,76.314178 13.447878,13.197918 0 0 0 62.313467,88.469551 13.447878,13.197918 0 0 0 59.54569,88.182538 13.447878,13.197918 0 0 0 46.09758,101.38029 a 13.447878,13.197918 0 0 0 11.808863,13.08829 13.447878,13.197918 0 0 0 -9.719824,12.67419 13.447878,13.197918 0 0 0 13.448113,13.19775 13.447878,13.197918 0 0 0 7.886855,-2.52836 46.824759,45.954412 0 0 0 0.445033,0.49692 13.447878,13.197918 0 0 0 -3.328471,8.67745 13.447878,13.197918 0 0 0 13.447636,13.19822 13.447878,13.197918 0 0 0 12.351471,-7.98823 46.824759,45.954412 0 0 0 0.360312,0.09 13.447878,13.197918 0 0 0 -0.04903,0.9667 13.447878,13.197918 0 0 0 13.447642,13.19775 13.447878,13.197918 0 0 0 13.44811,-13.19775 13.447878,13.197918 0 0 0 -0.019,-0.52786 13.447878,13.197918 0 0 0 12.6818,8.85165 13.447878,13.197918 0 0 0 13.44763,-13.19775 13.447878,13.197918 0 0 0 -0.91006,-4.77115 13.447878,13.197918 0 0 0 4.8692,0.91007 13.447878,13.197918 0 0 0 13.44763,-13.19777 13.447878,13.197918 0 0 0 -9.52087,-12.6204 13.447878,13.197918 0 0 0 12.30626,-13.14207 13.447878,13.197918 0 0 0 -13.44811,-13.197755 13.447878,13.197918 0 0 0 -0.35698,0.01237 13.447878,13.197918 0 0 0 5.79781,-10.835976 13.447878,13.197918 0 0 0 -11.3167,-13.014978 13.447878,13.197918 0 0 0 -12.57519,-8.538461 13.447878,13.197918 0 0 0 -7.89066,2.530743 13.447878,13.197918 0 0 0 -12.99784,-9.841673 z"
       id="path826"
       inkscape:connector-curvature="0" />
  </g>
  <g
     inkscape:groupmode="layer"
     id="layer2"
     inkscape:label="casinha"
     transform="translate(0,-49)">
    <path
       style="opacity:1;fill:#ffeeaa;fill-opacity:1;stroke:#000000;stroke-width:0.84478742;stroke-linecap:round;stroke-linejoin:round;stroke-miterlimit:4;stroke-dasharray:none;stroke-opacity:1"
       d="m 29.995069,202.53599 v 21.92941 h 13.395047 v 72.76145 H 166.60998 V 224.4654 h 13.39505 v -21.92941 z"
       id="rect815"
       inkscape:connector-curvature="0" />
    <rect
       style="opacity:1;fill:#554400;fill-opacity:1;stroke:#35280c;stroke-width:1.58749998;stroke-linecap:round;stroke-linejoin:round;stroke-miterlimit:4;stroke-dasharray:none;stroke-opacity:1"
       id="rect4680"
       width="12.851191"
       height="46.869045"
       x="60.398811"
       y="238.8364" />
    <rect
       style="opacity:1;fill:#554400;fill-opacity:1;stroke:#35280c;stroke-width:1.58749998;stroke-linecap:round;stroke-linejoin:round;stroke-miterlimit:4;stroke-dasharray:none;stroke-opacity:1"
       id="rect4680-9"
       width="12.851191"
       height="46.869045"
       x="136.75"
       y="238.8364" />
    <rect
       style="opacity:1;fill:#aa4400;fill-opacity:1;stroke:#35280c;stroke-width:0.84500003;stroke-linecap:round;stroke-linejoin:round;stroke-miterlimit:4;stroke-dasharray:none;stroke-opacity:1"
       id="rect4697"
       width="36.285713"
       height="52.916664"
       x="86.857147"
       y="244.08334" />
    <rect
       style="opacity:1;fill:#d4aa00;fill-opacity:1;stroke:#aa8800;stroke-width:0.80935049;stroke-linecap:round;stroke-linejoin:round;stroke-miterlimit:4;stroke-dasharray:none;stroke-opacity:1"
       id="rect4701"
       width="148.54036"
       height="20.317144"
       x="30.676247"
       y="203.3781" />
  </g>
</svg>
