# Blender v2.76 (sub 0) OBJ File: 'Tent.blend'
# www.blender.org
o Cube_Tent.001
v -1.986901 0.198811 0.923095
v -0.085023 2.849213 0.923095
v -1.986901 0.198811 -2.723109
v -0.085023 2.849213 -2.723109
v 1.986901 0.198811 0.923095
v 0.085023 2.849213 0.923095
v 1.986901 0.198811 -2.723109
v 0.085023 2.849213 -2.723109
v -1.986901 0.039323 -2.723109
v -1.986901 0.039323 0.923095
v 1.986901 0.039323 -2.723109
v 1.986901 0.039323 0.923095
v -0.080341 2.776242 -2.723109
v -1.877496 0.271781 -2.723109
v 0.080341 2.776242 -2.723109
v 1.877496 0.271781 -2.723109
v -0.080341 2.776242 0.738688
v -1.877496 0.271781 0.738687
v 0.080341 2.776242 0.738688
v 1.877496 0.271781 0.738687
v 0.080341 2.776242 -2.245110
v -0.080341 2.776242 -2.245110
v 1.877496 0.271781 -2.245110
v -1.877496 0.271781 -2.245110
v 0.080341 2.776242 -1.982001
v 1.877496 0.271781 -1.982001
v -0.080341 2.776242 -1.982001
v -1.877496 0.271781 -1.982001
v -0.016274 2.572383 -2.086907
v -0.016274 2.572383 -2.140204
v 0.016274 2.572383 -2.140204
v 0.016274 2.572383 -2.086907
v -0.016274 0.235688 -2.086907
v -0.016274 0.235688 -2.140204
v 0.016274 0.235688 -2.140204
v 0.016274 0.235688 -2.086907
v 2.108343 0.079995 0.923095
v 2.108343 0.079995 -2.723109
v -2.133895 0.054996 0.923095
v -2.133895 0.054996 -2.723109
vt 0.000000 0.000000
vt 0.325039 0.000000
vt 0.325039 0.344964
vt 0.644093 0.672255
vt 0.648992 0.663245
vt 0.817147 0.663244
vt 0.686113 0.344964
vt 0.364988 0.344964
vt 0.364988 0.000000
vt 0.914831 0.344965
vt 1.000000 0.671190
vt 0.822047 0.671190
vt 0.345048 0.000000
vt 0.345048 0.344964
vt 0.956561 0.344964
vt 0.948946 0.344964
vt 0.948946 0.000000
vt 0.686113 0.000000
vt 0.864066 0.000000
vt 0.864066 0.344964
vt 0.822047 0.672255
vt 0.822047 0.691950
vt 0.644093 0.691950
vt 1.000000 0.690821
vt 0.822047 0.690821
vt 0.175350 0.672482
vt 0.175350 0.929884
vt 0.168155 0.929884
vt 0.736877 0.344965
vt 0.736668 0.353975
vt 0.729472 0.353975
vt 0.729262 0.344965
vt 0.563613 0.672482
vt 0.644093 0.981752
vt 0.475938 0.981752
vt 0.322820 0.602367
vt 0.322820 0.344965
vt 0.644093 0.344965
vt 0.000000 0.602367
vt 0.000000 0.344965
vt 0.168155 0.742598
vt 0.168155 1.000000
vt 0.000000 1.000000
vt 0.168155 0.672482
vt 0.168155 0.717705
vt 0.000000 0.717705
vt 0.000000 0.672482
vt 0.000000 0.627259
vt 0.322820 0.627259
vt 0.322820 0.672482
vt 0.644093 0.627259
vt 0.182546 0.672482
vt 0.182546 0.717705
vt 0.175350 0.717705
vt 0.000000 0.742598
vt 0.963756 0.000000
vt 0.960887 0.025632
vt 0.959430 0.025632
vt 0.899539 0.286759
vt 0.899539 0.000000
vt 0.904676 0.000000
vt 0.864066 0.313095
vt 0.874178 0.287744
vt 0.879315 0.287744
vt 0.914788 0.312116
vt 0.889427 0.312116
vt 0.970952 0.000000
vt 0.968083 0.026013
vt 0.966625 0.026013
vt 0.184004 0.672482
vt 0.184004 0.677525
vt 0.182546 0.677525
vt 0.874178 0.000000
vt 0.879315 0.000000
vt 0.968083 0.313626
vt 0.966625 0.313626
vt 0.960887 0.314184
vt 0.959430 0.314184
vt 0.933562 0.000000
vt 0.914788 0.000000
vt 0.933562 0.344964
vt 0.907216 0.344965
vt 0.956561 0.000000
vt 0.556418 0.672482
vt 0.644093 0.602367
vt 0.644093 0.672482
vt 0.904676 0.286759
vt 0.889427 0.313095
vn -0.812500 0.583000 0.000000
vn 0.000000 0.000000 -1.000000
vn 0.812500 0.583000 0.000000
vn 0.000000 0.000000 1.000000
vn -1.000000 0.000000 0.000000
vn 0.000000 1.000000 0.000000
vn 0.000000 -1.000000 0.000000
vn 1.000000 0.000000 0.000000
vn -0.812500 -0.583000 -0.000000
vn 0.812500 -0.583000 -0.000000
vn 0.000000 -0.457600 -0.889200
vn -0.954000 -0.299800 0.000000
vn 0.954000 -0.299800 0.000000
vn 0.000000 -0.457600 0.889200
vn -0.699300 -0.714800 0.000000
vn 0.699300 -0.714800 0.000000
s off
f 4/1/1 3/2/1 1/3/1
f 3/4/2 14/5/2 16/6/2
f 6/7/3 5/8/3 7/9/3
f 2/10/4 1/11/4 5/12/4
f 3/2/5 9/13/5 10/14/5
f 8/15/6 4/16/6 2/17/6
f 9/18/7 11/19/7 12/20/7
f 7/21/2 11/22/2 9/23/2
f 1/11/4 10/24/4 12/25/4
f 5/8/8 12/14/8 11/13/8
f 25/26/7 19/27/7 17/28/7
f 8/29/2 15/30/2 13/31/2
f 4/32/2 13/31/2 14/5/2
f 8/29/2 7/21/2 16/6/2
f 19/33/2 20/34/2 18/35/2
f 26/36/9 20/37/9 19/38/9
f 27/39/10 17/40/10 18/37/10
f 28/41/6 18/42/6 20/43/6
f 14/44/6 24/45/6 23/46/6
f 13/47/10 22/48/10 24/49/10
f 16/50/9 23/49/9 21/51/9
f 15/52/7 21/53/7 22/54/7
f 24/45/6 28/41/6 26/55/6
f 22/48/10 27/39/10 28/36/10
f 21/51/9 23/49/9 26/36/9
f 21/56/11 31/57/11 30/58/11
f 32/59/8 36/60/8 35/61/8
f 22/62/12 30/63/12 29/64/12
f 21/65/13 25/66/13 32/59/13
f 27/67/14 29/68/14 32/69/14
f 35/70/7 36/71/7 33/72/7
f 30/63/5 34/73/5 33/74/5
f 29/68/4 33/75/4 36/76/4
f 31/57/2 35/77/2 34/78/2
f 7/79/15 38/17/15 37/16/15
f 1/80/16 39/79/16 40/81/16
f 2/40/1 4/1/1 1/3/1
f 7/21/2 3/4/2 16/6/2
f 8/18/3 6/7/3 7/9/3
f 6/82/4 2/10/4 5/12/4
f 1/3/5 3/2/5 10/14/5
f 6/83/6 8/15/6 2/17/6
f 10/7/7 9/18/7 12/20/7
f 3/4/2 7/21/2 9/23/2
f 5/12/4 1/11/4 12/25/4
f 7/9/8 5/8/8 11/13/8
f 27/44/7 25/26/7 17/28/7
f 4/32/2 8/29/2 13/31/2
f 3/4/2 4/32/2 14/5/2
f 15/30/2 8/29/2 16/6/2
f 17/84/2 19/33/2 18/35/2
f 25/85/9 26/36/9 19/38/9
f 28/36/10 27/39/10 18/37/10
f 26/55/6 28/41/6 20/43/6
f 16/47/6 14/44/6 23/46/6
f 14/50/10 13/47/10 24/49/10
f 15/86/9 16/50/9 21/51/9
f 13/26/7 15/52/7 22/54/7
f 23/46/6 24/45/6 26/55/6
f 24/49/10 22/48/10 28/36/10
f 25/85/9 21/51/9 26/36/9
f 22/83/11 21/56/11 30/58/11
f 31/87/8 32/59/8 35/61/8
f 27/88/12 22/62/12 29/64/12
f 31/87/13 21/65/13 32/59/13
f 25/56/14 27/67/14 32/69/14
f 34/52/7 35/70/7 33/72/7
f 29/64/5 30/63/5 33/74/5
f 32/69/4 29/68/4 36/76/4
f 30/58/2 31/57/2 34/78/2
f 5/81/15 7/79/15 37/16/15
f 3/10/16 1/80/16 40/81/16
