# Blender v2.76 (sub 0) OBJ File: 'WatchTower.blend'
# www.blender.org
mtllib WatchTower.mtl
g testcube
o Cube
v 1.665731 0.208672 -1.665731
v 1.665731 0.208672 1.665731
v -1.665731 0.208672 1.665731
v -1.665730 0.208672 -1.665732
v 1.665732 0.623116 -1.665730
v 1.665730 0.623116 1.665732
v -1.665732 0.623116 1.665730
v -1.665731 0.623116 -1.665731
v 1.665732 4.988259 -1.665730
v 1.665730 4.988259 1.665732
v -1.665732 4.988259 1.665730
v -1.665731 4.988259 -1.665731
v 0.311543 6.404671 -0.311543
v 0.311543 6.404671 0.311544
v -0.311544 6.404671 0.311544
v -0.311544 6.404671 -0.311543
v 0.311543 6.615185 -0.311543
v 0.311543 6.615185 0.311544
v -0.311544 6.615185 0.311544
v -0.311544 6.615185 -0.311543
v 1.665730 2.636058 1.665732
v -1.665732 2.636058 1.665730
v 1.665732 2.636058 -1.665730
v -1.665731 2.636058 -1.665731
v 1.665731 0.208672 -1.136867
v 1.665731 0.208672 1.136867
v -1.665731 0.208672 1.136866
v -1.665731 0.208672 -1.136869
v 1.665731 0.623116 -1.136866
v 1.665731 0.623116 1.136869
v -1.665731 0.623116 1.136866
v -1.665731 0.623116 -1.136868
v 1.665731 4.988259 -1.136866
v 1.665731 4.988259 1.136869
v -1.665731 4.988259 1.136866
v -1.665731 4.988259 -1.136868
v 0.311543 6.404671 -0.212629
v 0.311543 6.404671 0.212630
v -0.311544 6.404671 0.212630
v -0.311544 6.404671 -0.212629
v 0.311543 6.615186 -0.212629
v 0.311543 6.615186 0.212630
v -0.311544 6.615186 0.212630
v -0.311544 6.615186 -0.212629
v -1.665731 2.636057 1.136866
v -1.665731 2.636057 -1.136868
v 1.665731 2.636057 -1.136866
v 1.665731 2.636057 1.136869
v 1.943095 0.241239 -1.136867
v 1.943095 0.241239 1.136867
v 1.720055 0.590548 -1.136866
v 1.720054 0.590548 1.136869
v 1.665731 0.642264 -1.058889
v 1.665731 0.642264 1.058892
v 1.665731 2.517139 -1.058889
v 1.665731 2.517139 1.058892
v 0.528296 0.642264 -1.058889
v 0.528296 0.642264 1.058892
v 0.528296 2.517139 -1.058889
v 0.528296 2.517139 1.058892
v 1.723786 2.636057 -1.136866
v 1.723785 2.636057 1.136869
v 1.723785 0.623116 1.136869
v 1.723786 0.623116 -1.136866
v 1.723786 2.517139 -1.058889
v 1.723785 2.517139 1.058892
v 1.723785 0.642264 1.058892
v 1.723786 0.642264 -1.058889
v 0.836030 4.402442 -1.665730
v -0.836029 4.402442 -1.665731
v 0.836028 4.402442 1.665732
v -0.836030 4.402442 1.665731
v 0.836028 3.221874 1.665732
v 0.836030 3.221874 -1.665730
v -0.836030 3.221874 1.665731
v -0.836029 3.221874 -1.665731
v 1.665731 4.402442 -0.570591
v 1.665731 4.402442 0.570594
v -1.665731 4.402442 0.570592
v -1.665731 4.402442 -0.570593
v -1.665731 3.221874 0.570592
v -1.665731 3.221874 -0.570593
v 1.665731 3.221874 -0.570591
v 1.665731 3.221874 0.570594
v 0.836029 4.402442 -1.421162
v -0.836029 4.402442 -1.421162
v 0.836028 4.402442 1.421163
v -0.836029 4.402442 1.421162
v 0.836028 3.221874 1.421163
v 0.836029 3.221874 -1.421162
v -0.836029 3.221874 1.421162
v -0.836029 3.221874 -1.421162
v 1.421163 4.402442 -0.570591
v 1.421162 4.402442 0.570594
v -1.421163 4.402442 0.570592
v -1.421163 4.402442 -0.570593
v -1.421163 3.221874 0.570592
v -1.421163 3.221874 -0.570593
v 1.421163 3.221874 -0.570591
v 1.421162 3.221874 0.570594
vn 0.000000 -1.000000 0.000000
vn -0.000000 -0.000000 1.000000
vn 1.000000 0.000000 0.000000
vn -1.000000 -0.000000 -0.000000
vn 0.000000 0.000000 -1.000000
vn -0.000000 1.000000 -0.000000
vn 0.116600 -0.993200 0.000000
vn 0.842800 0.538200 0.000000
vn 0.514200 0.857700 0.000000
vn 0.000000 -0.971100 -0.238500
vn 0.000000 -0.971100 0.238500
vn -0.000000 0.691100 0.722800
vn 0.722800 0.691100 0.000000
vn -0.722800 0.691100 -0.000000
vn 0.000000 0.691100 -0.722800
usemtl corpo
s off
f 2//1 3//1 27//1
f 11//2 72//2 71//2
f 30//3 6//3 2//3
f 6//2 7//2 3//2
f 28//4 32//4 8//4
f 1//5 4//5 8//5
f 23//3 9//3 33//3
f 22//4 11//4 35//4
f 21//2 73//2 75//2
f 39//4 15//4 19//4
f 43//6 19//6 18//6
f 16//5 20//5 17//5
f 14//2 18//2 19//2
f 37//3 13//3 17//3
f 8//5 24//5 23//5
f 7//4 22//4 45//4
f 5//3 23//3 47//3
f 6//2 21//2 22//2
f 6//3 30//3 48//3
f 48//6 62//6 61//6
f 8//4 32//4 46//4
f 31//4 45//4 46//4
f 38//3 42//3 18//3
f 37//3 41//3 42//3
f 20//6 44//6 41//6
f 41//6 44//6 43//6
f 40//4 44//4 20//4
f 39//4 43//4 44//4
f 24//4 46//4 36//4
f 45//4 81//4 82//4
f 21//3 48//3 34//3
f 9//5 69//5 70//5
f 3//4 7//4 31//4
f 27//4 31//4 32//4
f 5//3 29//3 25//3
f 25//7 49//7 50//7
f 25//1 28//1 4//1
f 25//1 26//1 27//1
f 51//8 52//8 50//8
f 26//2 50//2 52//2
f 25//5 29//5 51//5
f 30//9 52//9 51//9
f 54//5 58//5 60//5
f 47//5 61//5 64//5
f 56//5 66//5 67//5
f 29//3 53//3 54//3
f 57//3 59//3 60//3
f 53//6 57//6 58//6
f 55//2 59//2 57//2
f 56//1 60//1 59//1
f 64//3 61//3 65//3
f 62//3 66//3 65//3
f 63//3 67//3 66//3
f 54//10 67//10 63//10
f 29//11 64//11 68//11
f 53//2 68//2 65//2
f 30//2 63//2 62//2
f 55//1 65//1 66//1
f 74//4 90//4 85//4
f 81//6 97//6 98//6
f 71//4 87//4 89//4
f 79//1 80//1 96//1
f 22//2 75//2 72//2
f 47//3 83//3 84//3
f 46//4 82//4 80//4
f 10//2 71//2 73//2
f 34//3 78//3 77//3
f 35//4 79//4 81//4
f 24//5 12//5 70//5
f 48//3 84//3 78//3
f 24//5 76//5 74//5
f 23//5 74//5 69//5
f 36//4 80//4 79//4
f 33//3 77//3 83//3
f 83//6 99//6 100//6
f 75//3 91//3 88//3
f 82//2 98//2 96//2
f 70//3 86//3 92//3
f 79//5 95//5 97//5
f 76//6 92//6 90//6
f 84//5 100//5 94//5
f 75//6 73//6 89//6
f 69//1 85//1 86//1
f 77//2 93//2 99//2
f 78//1 94//1 93//1
f 72//1 88//1 87//1
f 26//1 2//1 27//1
f 10//2 11//2 71//2
f 26//3 30//3 2//3
f 2//2 6//2 3//2
f 4//4 28//4 8//4
f 5//5 1//5 8//5
f 47//3 23//3 33//3
f 45//4 22//4 35//4
f 22//2 21//2 75//2
f 43//4 39//4 19//4
f 42//6 43//6 18//6
f 13//5 16//5 17//5
f 15//2 14//2 19//2
f 41//3 37//3 17//3
f 5//5 8//5 23//5
f 31//4 7//4 45//4
f 29//3 5//3 47//3
f 7//2 6//2 22//2
f 21//3 6//3 48//3
f 47//6 48//6 61//6
f 24//4 8//4 46//4
f 32//4 31//4 46//4
f 14//3 38//3 18//3
f 38//3 37//3 42//3
f 17//6 20//6 41//6
f 42//6 41//6 43//6
f 16//4 40//4 20//4
f 40//4 39//4 44//4
f 12//4 24//4 36//4
f 46//4 45//4 82//4
f 10//3 21//3 34//3
f 12//5 9//5 70//5
f 27//4 3//4 31//4
f 28//4 27//4 32//4
f 1//3 5//3 25//3
f 26//7 25//7 50//7
f 1//1 25//1 4//1
f 28//1 25//1 27//1
f 49//8 51//8 50//8
f 30//2 26//2 52//2
f 49//5 25//5 51//5
f 29//9 30//9 51//9
f 56//5 54//5 60//5
f 29//5 47//5 64//5
f 54//5 56//5 67//5
f 30//3 29//3 54//3
f 58//3 57//3 60//3
f 54//6 53//6 58//6
f 53//2 55//2 57//2
f 55//1 56//1 59//1
f 68//3 64//3 65//3
f 61//3 62//3 65//3
f 62//3 63//3 66//3
f 30//10 54//10 63//10
f 53//11 29//11 68//11
f 55//2 53//2 65//2
f 48//2 30//2 62//2
f 56//1 55//1 66//1
f 69//4 74//4 85//4
f 82//6 81//6 98//6
f 73//4 71//4 89//4
f 95//1 79//1 96//1
f 11//2 22//2 72//2
f 48//3 47//3 84//3
f 36//4 46//4 80//4
f 21//2 10//2 73//2
f 33//3 34//3 77//3
f 45//4 35//4 81//4
f 76//5 24//5 70//5
f 34//3 48//3 78//3
f 23//5 24//5 74//5
f 9//5 23//5 69//5
f 35//4 36//4 79//4
f 47//3 33//3 83//3
f 84//6 83//6 100//6
f 72//3 75//3 88//3
f 80//2 82//2 96//2
f 76//3 70//3 92//3
f 81//5 79//5 97//5
f 74//6 76//6 90//6
f 78//5 84//5 94//5
f 91//6 75//6 89//6
f 70//1 69//1 86//1
f 83//2 77//2 99//2
f 77//1 78//1 93//1
f 71//1 72//1 87//1
usemtl tel
f 10//12 14//12 15//12
f 33//13 9//13 13//13
f 35//14 11//14 15//14
f 12//15 16//15 13//15
f 36//14 40//14 16//14
f 35//14 39//14 40//14
f 34//13 38//13 14//13
f 33//13 37//13 38//13
f 11//12 10//12 15//12
f 37//13 33//13 13//13
f 39//14 35//14 15//14
f 9//15 12//15 13//15
f 12//14 36//14 16//14
f 36//14 35//14 40//14
f 10//13 34//13 14//13
f 34//13 33//13 38//13
usemtl jan
f 89//2 87//2 88//2
f 92//5 86//5 85//5
f 97//4 95//4 96//4
f 99//3 93//3 94//3
f 91//2 89//2 88//2
f 90//5 92//5 85//5
f 98//4 97//4 96//4
f 100//3 99//3 94//3
