# Blender v2.76 (sub 0) OBJ File: ''
# www.blender.org
mtllib test.mtl
g TestCube_Cube
o Cube
v 3.991889 -1.000000 -3.991889
v 3.991889 -1.000000 3.991889
v -3.991889 -1.000000 3.991888
v -3.991887 -1.000000 -3.991890
v 3.991891 1.000000 -3.991887
v 3.991886 0.218799 3.991891
v -3.991890 1.000000 3.991887
v -3.991889 1.000000 -3.991889
vn 0.000000 -1.000000 0.000000
vn 0.000000 1.000000 -0.000000
vn 1.000000 -0.000000 0.000000
vn -0.000000 0.000000 1.000000
vn -1.000000 -0.000000 -0.000000
vn 0.000000 0.000000 -1.000000
vn 0.096900 0.990600 0.096900
usemtl Material
s off
f 2//1 3//1 4//1
f 5//2 8//2 7//2
f 1//3 5//3 6//3
f 6//4 7//4 3//4
f 3//5 7//5 8//5
f 1//6 4//6 8//6
f 1//1 2//1 4//1
f 6//7 5//7 7//7
f 2//3 1//3 6//3
f 2//4 6//4 3//4
f 4//5 3//5 8//5
f 5//6 1//6 8//6
