# Blender v2.76 (sub 0) OBJ File: 'Tent.blend'
# www.blender.org
mtllib Tent.mtl
o Cube_Cube.001
v -1.986901 0.198811 0.923095
v -0.085023 2.849213 0.923095
v -1.986901 0.198811 -2.723109
v -0.085023 2.849213 -2.723109
v 1.986901 0.198811 0.923095
v 0.085023 2.849213 0.923095
v 1.986901 0.198811 -2.723109
v 0.085023 2.849213 -2.723109
v -1.986901 0.039323 -2.723109
v -1.986901 0.039323 0.923095
v 1.986901 0.039323 -2.723109
v 1.986901 0.039323 0.923095
v -0.080341 2.776242 -2.723109
v -1.877496 0.271781 -2.723109
v 0.080341 2.776242 -2.723109
v 1.877496 0.271781 -2.723109
v -0.080341 2.776242 0.738688
v -1.877496 0.271781 0.738687
v 0.080341 2.776242 0.738688
v 1.877496 0.271781 0.738687
v 0.080341 2.776242 -2.245110
v -0.080341 2.776242 -2.245110
v 1.877496 0.271781 -2.245110
v -1.877496 0.271781 -2.245110
v 0.080341 2.776242 -1.982001
v 1.877496 0.271781 -1.982001
v -0.080341 2.776242 -1.982001
v -1.877496 0.271781 -1.982001
v -0.016274 2.572383 -2.086907
v -0.016274 2.572383 -2.140204
v 0.016274 2.572383 -2.140204
v 0.016274 2.572383 -2.086907
v -0.016274 0.235688 -2.086907
v -0.016274 0.235688 -2.140204
v 0.016274 0.235688 -2.140204
v 0.016274 0.235688 -2.086907
v 2.108343 0.079995 0.923095
v 2.108343 0.079995 -2.723109
v -2.133895 0.054996 0.923095
v -2.133895 0.054996 -2.723109
vn -0.812500 0.583000 0.000000
vn 0.000000 0.000000 -1.000000
vn 0.812500 0.583000 0.000000
vn 0.000000 0.000000 1.000000
vn -1.000000 0.000000 0.000000
vn 0.000000 1.000000 0.000000
vn 0.000000 -1.000000 0.000000
vn 1.000000 0.000000 0.000000
vn -0.812500 -0.583000 -0.000000
vn 0.812500 -0.583000 -0.000000
vn 0.000000 -0.457600 -0.889200
vn -0.954000 -0.299800 0.000000
vn 0.954000 -0.299800 0.000000
vn 0.000000 -0.457600 0.889200
vn -0.699300 -0.714800 0.000000
vn 0.699300 -0.714800 0.000000
usemtl None
s off
f 4//1 3//1 1//1
f 3//2 14//2 16//2
f 6//3 5//3 7//3
f 2//4 1//4 5//4
f 3//5 9//5 10//5
f 8//6 4//6 2//6
f 9//7 11//7 12//7
f 7//2 11//2 9//2
f 1//4 10//4 12//4
f 5//8 12//8 11//8
f 25//7 19//7 17//7
f 8//2 15//2 13//2
f 4//2 13//2 14//2
f 8//2 7//2 16//2
f 19//2 20//2 18//2
f 26//9 20//9 19//9
f 27//10 17//10 18//10
f 28//6 18//6 20//6
f 14//6 24//6 23//6
f 13//10 22//10 24//10
f 16//9 23//9 21//9
f 15//7 21//7 22//7
f 24//6 28//6 26//6
f 22//10 27//10 28//10
f 21//9 23//9 26//9
f 21//11 31//11 30//11
f 32//8 36//8 35//8
f 22//12 30//12 29//12
f 21//13 25//13 32//13
f 27//14 29//14 32//14
f 35//7 36//7 33//7
f 30//5 34//5 33//5
f 29//4 33//4 36//4
f 31//2 35//2 34//2
f 7//15 38//15 37//15
f 1//16 39//16 40//16
f 2//1 4//1 1//1
f 7//2 3//2 16//2
f 8//3 6//3 7//3
f 6//4 2//4 5//4
f 1//5 3//5 10//5
f 6//6 8//6 2//6
f 10//7 9//7 12//7
f 3//2 7//2 9//2
f 5//4 1//4 12//4
f 7//8 5//8 11//8
f 27//7 25//7 17//7
f 4//2 8//2 13//2
f 3//2 4//2 14//2
f 15//2 8//2 16//2
f 17//2 19//2 18//2
f 25//9 26//9 19//9
f 28//10 27//10 18//10
f 26//6 28//6 20//6
f 16//6 14//6 23//6
f 14//10 13//10 24//10
f 15//9 16//9 21//9
f 13//7 15//7 22//7
f 23//6 24//6 26//6
f 24//10 22//10 28//10
f 25//9 21//9 26//9
f 22//11 21//11 30//11
f 31//8 32//8 35//8
f 27//12 22//12 29//12
f 31//13 21//13 32//13
f 25//14 27//14 32//14
f 34//7 35//7 33//7
f 29//5 30//5 33//5
f 32//4 29//4 36//4
f 30//2 31//2 34//2
f 5//15 7//15 37//15
f 3//16 1//16 40//16
