# Blender v2.76 (sub 0) OBJ File: ''
# www.blender.org
mtllib test2.mtl
o Cube2_Cube
v 1.000000 -1.000000 -1.000000
v 1.000000 -1.000000 1.000000
v -1.000000 -1.000000 1.000000
v -1.000000 -1.000000 -1.000000
v -1.000000 1.000000 -1.000000
v -1.000000 1.000000 1.000000
v -0.632013 1.000000 0.632013
v -0.632013 1.000000 -0.632013
v 1.000000 1.000000 -0.999999
v 0.999999 1.000000 1.000001
v -0.464080 -0.941458 1.000000
v -0.464080 -0.013299 1.000000
v -0.632013 0.394518 0.632013
v -0.632013 0.394518 -0.632013
v 0.632013 1.000000 -0.632012
v 0.632012 1.000000 0.632013
v 0.632012 0.394518 0.632013
v 0.427283 0.394518 0.427284
v -0.427284 0.394518 0.427284
v 0.632013 0.394518 -0.632012
v 0.427284 0.394518 -0.427283
v 0.427284 1.863492 -0.427283
v 0.427283 1.863492 0.427284
v -0.427284 0.394518 -0.427283
v -0.427284 1.863492 -0.427283
v -0.427284 1.863492 0.427284
v 0.464079 -0.013299 1.000000
v -0.464080 -0.013299 0.550533
v 0.464079 -0.013299 0.550534
v 0.464079 -0.941458 1.000000
v 0.464080 -0.941458 0.550534
v -0.464080 -0.941458 0.550534
vn 0.000000 -1.000000 -0.000000
vn -0.000000 1.000000 0.000000
vn 1.000000 0.000000 0.000000
vn 0.000000 -0.000000 1.000000
vn -1.000000 -0.000000 0.000000
vn 0.000000 0.000000 -1.000000
usemtl Material.001
s 1
f 2//1 3//1 4//1
f 6//2 7//2 8//2
f 9//3 10//3 2//3
f 3//4 11//4 12//4
f 6//5 5//5 4//5
f 1//6 4//6 5//6
f 7//3 13//3 14//3
f 9//2 5//2 8//2
f 10//2 16//2 7//2
f 10//2 9//2 15//2
f 17//2 18//2 19//2
f 8//4 14//4 20//4
f 16//6 17//6 13//6
f 15//5 20//5 17//5
f 21//3 22//3 23//3
f 17//2 20//2 21//2
f 13//2 19//2 24//2
f 14//2 24//2 21//2
f 25//2 26//2 23//2
f 24//5 19//5 26//5
f 24//6 25//6 22//6
f 18//4 23//4 26//4
f 12//1 28//1 29//1
f 2//4 10//4 27//4
f 3//4 2//4 30//4
f 6//4 12//4 27//4
f 29//4 28//4 32//4
f 27//5 29//5 31//5
f 12//3 11//3 32//3
f 30//2 31//2 32//2
f 1//1 2//1 4//1
f 5//2 6//2 8//2
f 1//3 9//3 2//3
f 6//4 3//4 12//4
f 3//5 6//5 4//5
f 9//6 1//6 5//6
f 8//3 7//3 14//3
f 15//2 9//2 8//2
f 6//2 10//2 7//2
f 16//2 10//2 15//2
f 13//2 17//2 19//2
f 15//4 8//4 20//4
f 7//6 16//6 13//6
f 16//5 15//5 17//5
f 18//3 21//3 23//3
f 18//2 17//2 21//2
f 14//2 13//2 24//2
f 20//2 14//2 21//2
f 22//2 25//2 23//2
f 25//5 24//5 26//5
f 21//6 24//6 22//6
f 19//4 18//4 26//4
f 27//1 12//1 29//1
f 30//4 2//4 27//4
f 11//4 3//4 30//4
f 10//4 6//4 27//4
f 31//4 29//4 32//4
f 30//5 27//5 31//5
f 28//3 12//3 32//3
f 11//2 30//2 32//2
